<svg xmlns="http://www.w3.org/2000/svg" xmlns:xlink="http://www.w3.org/1999/xlink"><symbol id="inline-arrow" viewBox="0 0 24 24"><path d="M5 3l3.057-3L20 12 8.057 24 5 21l9-9z"/></symbol><symbol id="inline-cart" viewBox="0 0 24 24"><path d="M11.476 8.853a.998.998 0 0 1-.328-1.372l3.004-5.004A.99.99 0 0 1 15.001 2a.999.999 0 0 1 .851 1.519l-3.005 5.005a.997.997 0 0 1-1.371.329zM14.902 9l-.351.569A2.973 2.973 0 0 1 11.998 11a2.962 2.962 0 0 1-2.812-2H0v2h.643c.535 0 1.021.304 1.256.784L6 22h12l4.102-10.214A1.397 1.397 0 0 1 23.358 11H24V9h-9.098zM9 18a1 1 0 1 1-2 0v-4a1 1 0 1 1 2 0v4zm4 0a1 1 0 1 1-2 0v-4a1 1 0 1 1 2 0v4zm4 0a1 1 0 1 1-2 0v-4a1 1 0 1 1 2 0v4z"/></symbol><symbol id="inline-facebook" viewBox="0 0 24 24"><path d="M19 0H5a5 5 0 0 0-5 5v14a5 5 0 0 0 5 5h14a5 5 0 0 0 5-5V5a5 5 0 0 0-5-5zm-3 7h-1.924C13.461 7 13 7.252 13 7.889V9h3l-.238 3H13v8h-3v-8H8V9h2V7.077C10 5.055 11.064 4 13.461 4H16v3z"/></symbol><symbol id="inline-pin" viewBox="0 0 24 24"><path d="M12 0C7.802 0 4 3.403 4 7.602 4 11.8 7.469 16.812 12 24c4.531-7.188 8-12.2 8-16.398C20 3.403 16.199 0 12 0zm0 11a3 3 0 1 1 0-6 3 3 0 0 1 0 6z"/></symbol><symbol id="inline-truck"><path d="M3 18H1a1 1 0 0 1-1-1v-2h15V6h4.667c1.117 0 1.6.576 1.936 1.107.594.94 1.536 2.432 2.109 3.378.188.312.288.67.288 1.035V16c0 1.121-.728 2-2 2h-1a3.001 3.001 0 0 1-6 0H9a3.001 3.001 0 0 1-6 0zm3-1.2a1.201 1.201 0 0 1 0 2.4 1.201 1.201 0 0 1 0-2.4zm12 0a1.201 1.201 0 0 1 0 2.4 1.201 1.201 0 0 1 0-2.4zM14 14H0V4a1 1 0 0 1 1-1h12a1 1 0 0 1 1 1v10zm3-6v3h4.715l-1.427-2.496A.999.999 0 0 0 19.42 8H17z"/></symbol><symbol id="inline-twitter" viewBox="0 0 24 24"><path d="M24 4.557a9.83 9.83 0 0 1-2.828.775 4.932 4.932 0 0 0 2.165-2.724 9.864 9.864 0 0 1-3.127 1.195 4.916 4.916 0 0 0-3.594-1.555c-3.179 0-5.515 2.966-4.797 6.045A13.978 13.978 0 0 1 1.671 3.149a4.93 4.93 0 0 0 1.523 6.574 4.903 4.903 0 0 1-2.229-.616c-.054 2.281 1.581 4.415 3.949 4.89a4.935 4.935 0 0 1-2.224.084 4.928 4.928 0 0 0 4.6 3.419A9.9 9.9 0 0 1 0 19.54a13.94 13.94 0 0 0 7.548 2.212c9.142 0 14.307-7.721 13.995-14.646A10.025 10.025 0 0 0 24 4.557z"/></symbol></svg>